<mxfile host="Electron" modified="2024-06-06T05:07:17.133Z" agent="Mozilla/5.0 (X11; Linux x86_64) AppleWebKit/537.36 (KHTML, like Gecko) draw.io/24.4.8 Chrome/124.0.6367.207 Electron/30.0.6 Safari/537.36" etag="XfHVzhA1n-cgeE_8zoEC" version="24.3.1" type="device">
  <diagram name="Page-1" id="imyKC2mEEuIVjBUN1eEC">
    <mxGraphModel dx="1195" dy="686" grid="1" gridSize="10" guides="1" tooltips="1" connect="1" arrows="1" fold="1" page="1" pageScale="1" pageWidth="1600" pageHeight="1200" math="0" shadow="0">
      <root>
        <mxCell id="0" />
        <mxCell id="1" parent="0" />
        <mxCell id="KVEm1cqh7u390rWrTUS3-1" value="External API" style="verticalAlign=top;align=left;spacingTop=8;spacingLeft=2;spacingRight=12;shape=cube;size=10;direction=south;fontStyle=4;html=1;whiteSpace=wrap;labelBackgroundColor=default;" vertex="1" parent="1">
          <mxGeometry x="225" y="370" width="180" height="120" as="geometry" />
        </mxCell>
        <mxCell id="KVEm1cqh7u390rWrTUS3-2" value="Backend" style="verticalAlign=top;align=left;spacingTop=8;spacingLeft=2;spacingRight=12;shape=cube;size=10;direction=south;fontStyle=4;html=1;whiteSpace=wrap;labelBackgroundColor=default;" vertex="1" parent="1">
          <mxGeometry x="625" y="370" width="180" height="120" as="geometry" />
        </mxCell>
        <mxCell id="KVEm1cqh7u390rWrTUS3-3" value="Frontend" style="verticalAlign=top;align=left;spacingTop=8;spacingLeft=2;spacingRight=12;shape=cube;size=10;direction=south;fontStyle=4;html=1;whiteSpace=wrap;labelBackgroundColor=default;" vertex="1" parent="1">
          <mxGeometry x="985" y="370" width="180" height="120" as="geometry" />
        </mxCell>
        <mxCell id="KVEm1cqh7u390rWrTUS3-4" value="Redis" style="shape=datastore;whiteSpace=wrap;html=1;labelBackgroundColor=default;" vertex="1" parent="1">
          <mxGeometry x="640" y="40" width="150" height="180" as="geometry" />
        </mxCell>
        <mxCell id="KVEm1cqh7u390rWrTUS3-5" value="&lt;span style=&quot;&quot;&gt;Requests/ Recievs Data&lt;/span&gt;" style="edgeStyle=orthogonalEdgeStyle;rounded=0;orthogonalLoop=1;jettySize=auto;html=1;entryX=0;entryY=0;entryDx=55;entryDy=0;entryPerimeter=0;exitX=0.465;exitY=0.998;exitDx=0;exitDy=0;exitPerimeter=0;startArrow=block;startFill=1;labelBackgroundColor=default;" edge="1" parent="1" source="KVEm1cqh7u390rWrTUS3-3" target="KVEm1cqh7u390rWrTUS3-2">
          <mxGeometry relative="1" as="geometry" />
        </mxCell>
        <mxCell id="KVEm1cqh7u390rWrTUS3-7" value="Stores Data" style="edgeStyle=orthogonalEdgeStyle;rounded=0;orthogonalLoop=1;jettySize=auto;html=1;entryX=0.85;entryY=0.95;entryDx=0;entryDy=0;entryPerimeter=0;exitX=0.018;exitY=0.209;exitDx=0;exitDy=0;exitPerimeter=0;labelBackgroundColor=default;" edge="1" parent="1" source="KVEm1cqh7u390rWrTUS3-2" target="KVEm1cqh7u390rWrTUS3-4">
          <mxGeometry relative="1" as="geometry" />
        </mxCell>
        <mxCell id="KVEm1cqh7u390rWrTUS3-8" value="Request/ Recieves&lt;div&gt;Data&lt;/div&gt;" style="edgeStyle=orthogonalEdgeStyle;rounded=0;orthogonalLoop=1;jettySize=auto;html=1;entryX=-0.015;entryY=0.775;entryDx=0;entryDy=0;entryPerimeter=0;exitX=0.15;exitY=0.95;exitDx=0;exitDy=0;exitPerimeter=0;startArrow=classic;startFill=1;labelBackgroundColor=default;" edge="1" parent="1" source="KVEm1cqh7u390rWrTUS3-4" target="KVEm1cqh7u390rWrTUS3-2">
          <mxGeometry relative="1" as="geometry" />
        </mxCell>
        <mxCell id="KVEm1cqh7u390rWrTUS3-9" value="Requests/ Recievs Data" style="edgeStyle=orthogonalEdgeStyle;rounded=0;orthogonalLoop=1;jettySize=auto;html=1;entryX=0.535;entryY=-0.014;entryDx=0;entryDy=0;entryPerimeter=0;exitX=0;exitY=0;exitDx=65;exitDy=180;exitPerimeter=0;startArrow=block;startFill=1;labelBackgroundColor=default;" edge="1" parent="1" source="KVEm1cqh7u390rWrTUS3-2" target="KVEm1cqh7u390rWrTUS3-1">
          <mxGeometry relative="1" as="geometry">
            <mxPoint x="605" y="431" as="sourcePoint" />
            <mxPoint x="425" y="430" as="targetPoint" />
          </mxGeometry>
        </mxCell>
        <mxCell id="KVEm1cqh7u390rWrTUS3-11" value="" style="ellipse;whiteSpace=wrap;html=1;fillColor=none;labelBackgroundColor=default;" vertex="1" parent="1">
          <mxGeometry x="575" y="340" width="300" height="200" as="geometry" />
        </mxCell>
        <mxCell id="KVEm1cqh7u390rWrTUS3-12" value="" style="endArrow=classic;html=1;rounded=0;exitX=0;exitY=1;exitDx=0;exitDy=0;entryX=0;entryY=0;entryDx=0;entryDy=290;entryPerimeter=0;labelBackgroundColor=default;" edge="1" parent="1" source="KVEm1cqh7u390rWrTUS3-11" target="KVEm1cqh7u390rWrTUS3-13">
          <mxGeometry width="50" height="50" relative="1" as="geometry">
            <mxPoint x="695" y="660" as="sourcePoint" />
            <mxPoint x="375" y="650" as="targetPoint" />
          </mxGeometry>
        </mxCell>
        <mxCell id="KVEm1cqh7u390rWrTUS3-14" value="" style="endArrow=none;html=1;rounded=0;dashed=1;dashPattern=8 8;labelBackgroundColor=default;" edge="1" parent="1">
          <mxGeometry width="50" height="50" relative="1" as="geometry">
            <mxPoint x="225" y="570" as="sourcePoint" />
            <mxPoint x="1305" y="570" as="targetPoint" />
          </mxGeometry>
        </mxCell>
        <mxCell id="KVEm1cqh7u390rWrTUS3-32" value="" style="group;labelBackgroundColor=default;" vertex="1" connectable="0" parent="1">
          <mxGeometry x="35.00103448275863" y="650" width="722.0689655172412" height="380" as="geometry" />
        </mxCell>
        <mxCell id="KVEm1cqh7u390rWrTUS3-13" value="Backend" style="verticalAlign=top;align=left;spacingTop=8;spacingLeft=2;spacingRight=12;shape=cube;size=10;direction=south;fontStyle=4;html=1;whiteSpace=wrap;movable=1;resizable=1;rotatable=1;deletable=1;editable=1;locked=0;connectable=1;labelBackgroundColor=default;" vertex="1" parent="KVEm1cqh7u390rWrTUS3-32">
          <mxGeometry x="52.06896551724137" width="590" height="320" as="geometry" />
        </mxCell>
        <mxCell id="KVEm1cqh7u390rWrTUS3-19" value="" style="edgeStyle=orthogonalEdgeStyle;rounded=0;orthogonalLoop=1;jettySize=auto;html=1;startArrow=classicThin;startFill=1;labelBackgroundColor=default;" edge="1" parent="KVEm1cqh7u390rWrTUS3-32" source="KVEm1cqh7u390rWrTUS3-15" target="KVEm1cqh7u390rWrTUS3-17">
          <mxGeometry relative="1" as="geometry" />
        </mxCell>
        <mxCell id="KVEm1cqh7u390rWrTUS3-30" style="edgeStyle=orthogonalEdgeStyle;rounded=0;orthogonalLoop=1;jettySize=auto;html=1;exitX=1;exitY=0.5;exitDx=0;exitDy=0;endArrow=none;endFill=0;dashed=1;dashPattern=1 1;labelBackgroundColor=default;" edge="1" parent="KVEm1cqh7u390rWrTUS3-32" source="KVEm1cqh7u390rWrTUS3-15">
          <mxGeometry relative="1" as="geometry">
            <mxPoint x="722.0689655172412" y="165.10344827586232" as="targetPoint" />
          </mxGeometry>
        </mxCell>
        <mxCell id="KVEm1cqh7u390rWrTUS3-15" value="Rest Endpoints" style="shape=module;align=left;spacingLeft=20;align=center;verticalAlign=top;whiteSpace=wrap;html=1;labelBackgroundColor=default;" vertex="1" parent="KVEm1cqh7u390rWrTUS3-32">
          <mxGeometry x="492.0689655172414" y="140" width="100" height="50" as="geometry" />
        </mxCell>
        <mxCell id="KVEm1cqh7u390rWrTUS3-31" style="edgeStyle=orthogonalEdgeStyle;rounded=0;orthogonalLoop=1;jettySize=auto;html=1;exitX=0.5;exitY=1;exitDx=0;exitDy=0;dashed=1;dashPattern=1 1;endArrow=none;endFill=0;labelBackgroundColor=default;" edge="1" parent="KVEm1cqh7u390rWrTUS3-32" source="KVEm1cqh7u390rWrTUS3-16">
          <mxGeometry relative="1" as="geometry">
            <mxPoint x="342.0689655172414" y="380" as="targetPoint" />
          </mxGeometry>
        </mxCell>
        <mxCell id="KVEm1cqh7u390rWrTUS3-16" value="DB Layer" style="shape=module;align=left;spacingLeft=20;align=center;verticalAlign=top;whiteSpace=wrap;html=1;labelBackgroundColor=default;" vertex="1" parent="KVEm1cqh7u390rWrTUS3-32">
          <mxGeometry x="292.0689655172414" y="250" width="100" height="50" as="geometry" />
        </mxCell>
        <mxCell id="KVEm1cqh7u390rWrTUS3-20" value="" style="edgeStyle=orthogonalEdgeStyle;rounded=0;orthogonalLoop=1;jettySize=auto;html=1;startArrow=classicThin;startFill=1;labelBackgroundColor=default;" edge="1" parent="KVEm1cqh7u390rWrTUS3-32" source="KVEm1cqh7u390rWrTUS3-17" target="KVEm1cqh7u390rWrTUS3-18">
          <mxGeometry relative="1" as="geometry" />
        </mxCell>
        <mxCell id="KVEm1cqh7u390rWrTUS3-21" value="Stores" style="edgeStyle=orthogonalEdgeStyle;rounded=0;orthogonalLoop=1;jettySize=auto;html=1;labelBackgroundColor=default;" edge="1" parent="KVEm1cqh7u390rWrTUS3-32">
          <mxGeometry relative="1" as="geometry">
            <mxPoint x="372.06896551724117" y="190" as="sourcePoint" />
            <mxPoint x="372.06896551724117" y="250" as="targetPoint" />
          </mxGeometry>
        </mxCell>
        <mxCell id="KVEm1cqh7u390rWrTUS3-22" value="Requst/&lt;div&gt;Receives&lt;/div&gt;" style="edgeStyle=orthogonalEdgeStyle;rounded=0;orthogonalLoop=1;jettySize=auto;html=1;entryX=0.25;entryY=0;entryDx=0;entryDy=0;exitX=0.25;exitY=1;exitDx=0;exitDy=0;startArrow=classicThin;startFill=1;labelBackgroundColor=default;" edge="1" parent="KVEm1cqh7u390rWrTUS3-32" source="KVEm1cqh7u390rWrTUS3-17" target="KVEm1cqh7u390rWrTUS3-16">
          <mxGeometry relative="1" as="geometry" />
        </mxCell>
        <mxCell id="KVEm1cqh7u390rWrTUS3-17" value="Request handlers" style="shape=module;align=left;spacingLeft=20;align=center;verticalAlign=top;whiteSpace=wrap;html=1;labelBackgroundColor=default;" vertex="1" parent="KVEm1cqh7u390rWrTUS3-32">
          <mxGeometry x="292.0689655172414" y="140" width="100" height="50" as="geometry" />
        </mxCell>
        <mxCell id="KVEm1cqh7u390rWrTUS3-29" style="edgeStyle=orthogonalEdgeStyle;rounded=0;orthogonalLoop=1;jettySize=auto;html=1;exitX=0;exitY=0;exitDx=0;exitDy=15;exitPerimeter=0;dashed=1;dashPattern=1 1;endArrow=none;endFill=0;labelBackgroundColor=default;" edge="1" parent="KVEm1cqh7u390rWrTUS3-32" source="KVEm1cqh7u390rWrTUS3-18">
          <mxGeometry relative="1" as="geometry">
            <mxPoint y="154.75862068965534" as="targetPoint" />
          </mxGeometry>
        </mxCell>
        <mxCell id="KVEm1cqh7u390rWrTUS3-18" value="External Rest Request" style="shape=module;align=left;spacingLeft=20;align=center;verticalAlign=top;whiteSpace=wrap;html=1;labelBackgroundColor=default;" vertex="1" parent="KVEm1cqh7u390rWrTUS3-32">
          <mxGeometry x="92.06896551724137" y="140" width="100" height="50" as="geometry" />
        </mxCell>
        <mxCell id="KVEm1cqh7u390rWrTUS3-26" value="" style="ellipse;whiteSpace=wrap;html=1;align=center;aspect=fixed;fillColor=none;strokeColor=none;resizable=0;perimeter=centerPerimeter;rotatable=0;allowArrows=0;points=[];outlineConnect=1;labelBackgroundColor=default;" vertex="1" parent="KVEm1cqh7u390rWrTUS3-32">
          <mxGeometry x="332.0689655172414" y="30" width="10" height="10" as="geometry" />
        </mxCell>
        <mxCell id="KVEm1cqh7u390rWrTUS3-35" value="" style="ellipse;whiteSpace=wrap;html=1;fillColor=none;labelBackgroundColor=default;" vertex="1" parent="1">
          <mxGeometry x="925" y="340" width="310" height="190" as="geometry" />
        </mxCell>
        <mxCell id="KVEm1cqh7u390rWrTUS3-36" style="rounded=0;orthogonalLoop=1;jettySize=auto;html=1;exitX=0.5;exitY=1;exitDx=0;exitDy=0;entryX=0;entryY=0;entryDx=0;entryDy=305;entryPerimeter=0;labelBackgroundColor=default;" edge="1" parent="1" source="KVEm1cqh7u390rWrTUS3-35" target="KVEm1cqh7u390rWrTUS3-33">
          <mxGeometry relative="1" as="geometry" />
        </mxCell>
        <mxCell id="KVEm1cqh7u390rWrTUS3-45" value="" style="group;labelBackgroundColor=default;" vertex="1" connectable="0" parent="1">
          <mxGeometry x="895" y="650" width="670" height="310" as="geometry" />
        </mxCell>
        <mxCell id="KVEm1cqh7u390rWrTUS3-33" value="Frontend" style="verticalAlign=top;align=left;spacingTop=8;spacingLeft=2;spacingRight=12;shape=cube;size=10;direction=south;fontStyle=4;html=1;whiteSpace=wrap;labelBackgroundColor=default;" vertex="1" parent="KVEm1cqh7u390rWrTUS3-45">
          <mxGeometry x="50" width="620" height="310" as="geometry" />
        </mxCell>
        <mxCell id="KVEm1cqh7u390rWrTUS3-41" value="Provides&lt;div&gt;Instance&lt;/div&gt;" style="edgeStyle=orthogonalEdgeStyle;rounded=0;orthogonalLoop=1;jettySize=auto;html=1;labelBackgroundColor=default;" edge="1" parent="KVEm1cqh7u390rWrTUS3-45" source="KVEm1cqh7u390rWrTUS3-37" target="KVEm1cqh7u390rWrTUS3-38">
          <mxGeometry relative="1" as="geometry" />
        </mxCell>
        <mxCell id="KVEm1cqh7u390rWrTUS3-37" value="Rest Request" style="shape=module;align=left;spacingLeft=20;align=center;verticalAlign=top;whiteSpace=wrap;html=1;labelBackgroundColor=default;" vertex="1" parent="KVEm1cqh7u390rWrTUS3-45">
          <mxGeometry x="90" y="130" width="100" height="50" as="geometry" />
        </mxCell>
        <mxCell id="KVEm1cqh7u390rWrTUS3-42" value="Provides&lt;div&gt;Instance&lt;/div&gt;" style="edgeStyle=orthogonalEdgeStyle;rounded=0;orthogonalLoop=1;jettySize=auto;html=1;labelBackgroundColor=default;" edge="1" parent="KVEm1cqh7u390rWrTUS3-45" source="KVEm1cqh7u390rWrTUS3-38" target="KVEm1cqh7u390rWrTUS3-40">
          <mxGeometry relative="1" as="geometry" />
        </mxCell>
        <mxCell id="KVEm1cqh7u390rWrTUS3-38" value="Provider" style="shape=module;align=left;spacingLeft=20;align=center;verticalAlign=top;whiteSpace=wrap;html=1;labelBackgroundColor=default;" vertex="1" parent="KVEm1cqh7u390rWrTUS3-45">
          <mxGeometry x="290" y="130" width="120" height="50" as="geometry" />
        </mxCell>
        <mxCell id="KVEm1cqh7u390rWrTUS3-40" value="Frontend Widgets" style="shape=module;align=left;spacingLeft=20;align=center;verticalAlign=top;whiteSpace=wrap;html=1;labelBackgroundColor=default;" vertex="1" parent="KVEm1cqh7u390rWrTUS3-45">
          <mxGeometry x="500" y="130" width="100" height="50" as="geometry" />
        </mxCell>
        <mxCell id="KVEm1cqh7u390rWrTUS3-44" style="edgeStyle=orthogonalEdgeStyle;rounded=0;orthogonalLoop=1;jettySize=auto;html=1;endArrow=none;endFill=0;dashed=1;dashPattern=1 1;entryX=-0.009;entryY=0.486;entryDx=0;entryDy=0;entryPerimeter=0;labelBackgroundColor=default;" edge="1" parent="KVEm1cqh7u390rWrTUS3-45" target="KVEm1cqh7u390rWrTUS3-37">
          <mxGeometry relative="1" as="geometry">
            <mxPoint x="29.999999999999773" y="160.10344827586232" as="targetPoint" />
            <mxPoint y="154" as="sourcePoint" />
          </mxGeometry>
        </mxCell>
      </root>
    </mxGraphModel>
  </diagram>
</mxfile>
